<svg width="1931" height="1088" viewBox="0 0 1931 1088" fill="none" xmlns="http://www.w3.org/2000/svg">
<g filter="url(#filter0_d_49_2)">
<g clip-path="url(#clip0_49_2)">
<path d="M1349.12 604.682L1374.85 591.736C1388.81 584.712 1398.78 571.673 1401.9 556.359L1477.35 186.077C1497.9 85.1996 1402.88 -0.845249 1304.53 29.5776L1031.87 113.918C926.669 146.46 900.495 283.296 986.26 352.367L1288.08 595.438C1292.34 598.87 1297.19 601.496 1302.4 603.187L1314.99 607.279C1326.26 610.944 1338.53 610.011 1349.12 604.682Z" fill="#E8F0FF"/>
<path d="M367.93 760.948L420.488 773.721L470.888 783.454C649.366 817.925 793.746 638.2 724.051 470.315C648.461 288.228 414.871 233.873 268.272 365.7C130.491 489.597 187.877 717.189 367.93 760.948Z" fill="#E8F0FF" fill-opacity="0.6"/>
<path d="M719.622 779.327L748.383 786.317L775.963 791.643C873.629 810.506 952.636 712.158 914.498 620.289C873.133 520.648 745.309 490.904 665.088 563.042C589.692 630.84 621.094 755.382 719.622 779.327Z" fill="#E8F0FF" fill-opacity="0.6"/>
<path d="M302.623 988.327L331.383 995.317L358.963 1000.64C456.629 1019.51 535.636 921.158 497.498 829.289C456.133 729.648 328.309 699.904 248.088 772.042C172.693 839.84 204.095 964.382 302.623 988.327Z" fill="#E8F0FF" fill-opacity="0.6"/>
<path d="M1624.62 295.327L1653.38 302.317L1680.96 307.643C1778.63 326.506 1857.64 228.158 1819.5 136.289C1778.13 36.648 1650.31 6.90412 1570.09 79.0417C1494.69 146.84 1526.09 271.382 1624.62 295.327Z" fill="#E8F0FF" fill-opacity="0.6"/>
<path d="M1749.3 750.974L1773.62 756.884L1796.94 761.389C1879.53 777.339 1946.34 694.173 1914.09 616.486C1879.11 532.227 1771.02 507.075 1703.19 568.077C1639.43 625.409 1665.98 730.725 1749.3 750.974Z" fill="#E8F0FF" fill-opacity="0.6"/>
<path d="M-17.3775 779.327L11.3831 786.317L38.9629 791.643C136.629 810.506 215.636 712.158 177.498 620.289C136.133 520.648 8.30936 490.904 -71.9117 563.042C-147.307 630.84 -115.905 755.382 -17.3775 779.327Z" fill="#E8F0FF" fill-opacity="0.6"/>
<path d="M1121.58 772.049L1170.87 784.028L1218.13 793.156C1385.51 825.482 1520.91 656.937 1455.55 499.497C1384.66 328.738 1165.6 277.764 1028.12 401.39C898.913 517.579 952.728 731.013 1121.58 772.049Z" fill="#E8F0FF" fill-opacity="0.6"/>
<path d="M441.751 321.272L612.727 441.874C618.722 446.102 624.037 451.219 628.491 457.048C804.556 687.476 1167.57 498.646 1087.69 219.873L996.62 -40.5274C973.461 -106.75 898.333 -138.669 834.589 -109.368L628.046 -14.4258C622.997 -12.105 618.18 -9.30843 613.662 -6.07407L441.046 117.482C371.091 167.556 371.451 271.684 441.751 321.272Z" fill="#E8F0FF"/>
</g>
</g>
<defs>
<filter id="filter0_d_49_2" x="0" y="0" width="1936" height="1096" filterUnits="userSpaceOnUse" color-interpolation-filters="sRGB">
<feFlood flood-opacity="0" result="BackgroundImageFix"/>
<feColorMatrix in="SourceAlpha" type="matrix" values="0 0 0 0 0 0 0 0 0 0 0 0 0 0 0 0 0 0 127 0" result="hardAlpha"/>
<feMorphology radius="4" operator="dilate" in="SourceAlpha" result="effect1_dropShadow_49_2"/>
<feOffset/>
<feGaussianBlur stdDeviation="2"/>
<feComposite in2="hardAlpha" operator="out"/>
<feColorMatrix type="matrix" values="0 0 0 0 0 0 0 0 0 0 0 0 0 0 0 0 0 0 0.1 0"/>
<feBlend mode="normal" in2="BackgroundImageFix" result="effect1_dropShadow_49_2"/>
<feBlend mode="normal" in="SourceGraphic" in2="effect1_dropShadow_49_2" result="shape"/>
</filter>
<clipPath id="clip0_49_2">
<rect x="8" y="8" width="1920" height="1080" rx="15" fill="white"/>
</clipPath>
</defs>
</svg>
